# xmcd
#
# Track frame offsets: 
#        183
#        13433
#        24830
#        40208
#        55395
#        66735
#        78800
#        92710
#        105630
#        118663
#        132530
#        145905
#        158963
#        173643
#        185673
#        200413
#        214368
#        227700
#        240958
#        252525
#
# Disc length: 3543 seconds
#
# Revision: 9
# Processed by: cddbd v1.5.2PL0 Copyright (c) Steve Scherf et al.
# Submitted via: ExactAudioCopyFreeDBPlugin 1.0
#
DISCID=240dd514
DTITLE=Muddy Waters - They Call Me Muddy Waters
DYEAR=1988
DGENRE=Blues
TTITLE0=Mannish Boy
TTITLE1=Crawlin' Kingsnake
TTITLE2=They Call Me Muddy Waters
TTITLE3=Standing Around Crying
TTITLE4=She's All Right
TTITLE5=My Life Is Ruined
TTITLE6=I Want You To Love Me
TTITLE7=(I'm Your) Hoochie Coochie Man
TTITLE8=I Just Want To Make Love To You
TTITLE9=I'm Ready
TTITLE10=She Moves Me
TTITLE11=Forty Days And Forty Nights
TTITLE12=Just To Be With You
TTITLE13=Walking Through The Park
TTITLE14=Still A Fool
TTITLE15=Lonesome Road Blues
TTITLE16=Mopper's Blues
TTITLE17=Southbound Train
TTITLE18=Just A Dream (On My Mind)
TTITLE19=I Feel So Good
EXTD=LABEL =M. C. R. Productions\nID =CD2562232\nUPC =027726-522326
EXTD=\nCOPYRIGHT =1988\nmore info\nMillenniumMusicProjectFormat, synt
EXTD=ax as follows:\nTitle{Subtitle}[info](Lyricist;Composer;Date,Arti
EXTD=st,Location)[info]\ncorrections to: windking3@yahoo.com YEAR: 198
EXTD=8
EXTT0=
EXTT1=
EXTT2=
EXTT3=
EXTT4=
EXTT5=
EXTT6=
EXTT7=
EXTT8=
EXTT9=
EXTT10=
EXTT11=
EXTT12=
EXTT13=
EXTT14=
EXTT15=
EXTT16=
EXTT17=
EXTT18=
EXTT19=
PLAYORDER=
